# xmcd
#
# Track frame offsets:
#	150
#	16496
#	31713
#	52489
#	66793
#	93959
#	109543
#	122430
#	137257
#	153221
#	167450
#	184204
#	190171
#	207573
#
# Disc length: 2973 seconds
#
# Revision: 0
# Processed by: cddbd v1.5.1PL0 Copyright (c) Steve Scherf et al.
# Submitted via: dBpowerAMP V4.0
#
DISCID=b30b9b0e
DTITLE=Ruth Wyand - Distant Drums
DYEAR=1900
DGENRE=
TTITLE0=Angel with No Wings
TTITLE1=Paranoia Street
TTITLE2=Distant Drums
TTITLE3=The Original Sin
TTITLE4=Hurricane
TTITLE5=Runaway Woman
TTITLE6=They Won't Know the Difference
TTITLE7=Le Musicien de la Rue
TTITLE8=Millionaire Blues
TTITLE9=Open Your Sails to the Wind
TTITLE10=Wait My Time
TTITLE11=One Minute Wave Ride
TTITLE12=A Stone Unturned
TTITLE13=It Ain't Over 'til the Fat Lady Sings
EXTD=
EXTT0=
EXTT1=
EXTT2=
EXTT3=
EXTT4=
EXTT5=
EXTT6=
EXTT7=
EXTT8=
EXTT9=
EXTT10=
EXTT11=
EXTT12=
EXTT13=
PLAYORDER=
